<?xml version="1.0" encoding="utf-8"?><svg xmlns="http://www.w3.org/2000/svg" xmlns:xlink="http://www.w3.org/1999/xlink"><symbol viewBox="0 0 50 51" id="arrow" xmlns="http://www.w3.org/2000/svg"><path fill-rule="evenodd" clip-rule="evenodd" d="M25 50.5c13.807 0 25-11.193 25-25S38.807.5 25 .5 0 11.693 0 25.5s11.193 25 25 25zm-1.494-17.221a1.5 1.5 0 11-2.012-2.225l6.32-5.72-6.366-6.265a1.5 1.5 0 112.104-2.138l7.5 7.38a1.5 1.5 0 01-.046 2.181l-7.5 6.787z"/></symbol><symbol viewBox="0 0 18 11" id="arrowsing" xmlns="http://www.w3.org/2000/svg"><path d="M2 2l6.787 7.5 7.38-7.5"/></symbol><symbol viewBox="0 0 24 22" id="calendar" xmlns="http://www.w3.org/2000/svg"><path d="M20.4 2.444h-1.2V1.222c0-.324-.126-.635-.351-.864A1.189 1.189 0 0018 0c-.318 0-.623.129-.849.358-.225.23-.351.54-.351.864v1.222H7.2V1.222c0-.324-.126-.635-.351-.864A1.19 1.19 0 006 0a1.19 1.19 0 00-.849.358c-.225.23-.351.54-.351.864v1.222H3.6c-.955 0-1.87.387-2.546 1.074A3.701 3.701 0 000 6.111v12.222c0 .973.38 1.905 1.054 2.593A3.567 3.567 0 003.6 22h16.8c.955 0 1.87-.386 2.546-1.074A3.702 3.702 0 0024 18.333V6.111c0-.972-.38-1.905-1.054-2.593A3.567 3.567 0 0020.4 2.444zM3.6 4.89h1.2v1.22c0 .324.126.635.351.864a1.19 1.19 0 001.697 0A1.23 1.23 0 007.2 6.11V4.89h9.6v1.22c0 .324.126.635.351.864a1.189 1.189 0 001.697 0 1.23 1.23 0 00.352-.864V4.89h1.2c.318 0 .623.129.849.358.225.23.351.54.351.864v2.445H2.4V6.11c0-.324.126-.635.351-.864.226-.23.53-.358.849-.358zm16.8 14.667H3.6a1.19 1.19 0 01-.849-.358 1.234 1.234 0 01-.351-.865V11h19.2v7.333c0 .325-.126.635-.352.865a1.19 1.19 0 01-.848.358z"/></symbol><symbol viewBox="0 0 18 17" id="checked" xmlns="http://www.w3.org/2000/svg"><path fill-rule="evenodd" clip-rule="evenodd" d="M2.785 7.929l3.296 3.81L15.711.307c.72-.772 1.854.052 1.287.927l-9.475 14.47c-.721.928-1.7 1.03-2.523.104L.21 10.092c-.927-1.34 1.442-3.245 2.575-2.163z"/></symbol><symbol viewBox="0 0 50 50" id="delete" xmlns="http://www.w3.org/2000/svg"><path fill-rule="evenodd" clip-rule="evenodd" d="M25 50c13.807 0 25-11.193 25-25S38.807 0 25 0 0 11.193 0 25s11.193 25 25 25zm.439-21.318l-4.209 4.207a1.9 1.9 0 01-2.678 0 1.901 1.901 0 010-2.678l4.49-4.49-4.49-4.49a1.902 1.902 0 010-2.679 1.9 1.9 0 012.678 0l4.209 4.208 4.207-4.208a1.9 1.9 0 012.68 0 1.902 1.902 0 010 2.68l-4.49 4.489 4.49 4.49a1.901 1.901 0 010 2.678 1.9 1.9 0 01-2.68 0l-4.207-4.207z"/></symbol><symbol viewBox="0 0 27 32" id="down" xmlns="http://www.w3.org/2000/svg"><path d="M5.754 11.814H3.985c-.757 0-1.42-.537-1.515-1.263-.063-.41.063-.853.347-1.168a1.512 1.512 0 011.105-.505h1.926a1.46 1.46 0 011.453 1.23c.031.253.22.411.473.411h1.61a.507.507 0 00.348-.158.475.475 0 00.126-.347 4.014 4.014 0 00-3.662-3.63v-1.39a.486.486 0 00-.474-.473H4.143a.486.486 0 00-.473.473v1.39c-1.01.062-1.958.536-2.652 1.294-.727.79-1.074 1.831-1.01 2.904.126 2.116 1.925 3.758 4.104 3.758H5.88c.758 0 1.42.536 1.515 1.263a1.44 1.44 0 01-.347 1.168 1.513 1.513 0 01-1.105.505H4.017a1.46 1.46 0 01-1.452-1.231c-.032-.221-.221-.38-.474-.38H.481a.507.507 0 00-.347.159c-.095.094-.127.22-.127.379.19 1.957 1.737 3.473 3.663 3.599v1.389c0 .253.22.474.473.474h1.579a.486.486 0 00.474-.474v-1.39c1.042-.062 1.957-.536 2.652-1.294.726-.789 1.073-1.83 1.01-2.904-.126-2.147-1.926-3.79-4.104-3.79zm19.354 1.242h-4.041a.916.916 0 00-.916.916v17.112c0 .506.41.916.916.916h4.04c.506 0 .916-.41.916-.916V13.972a.916.916 0 00-.915-.916zm-8.367 6.346H12.7a.916.916 0 00-.916.916v10.735c0 .505.41.915.916.915h4.041c.505 0 .916-.41.916-.915V20.318a.916.916 0 00-.916-.916zM8.406 25.78H4.364a.916.916 0 00-.915.916v4.388c0 .506.41.916.915.916h4.042c.505 0 .915-.41.915-.916v-4.388a.916.916 0 00-.915-.916zM23.914.284a.916.916 0 00-1.326 0L15.8 7.072l-1.642-1.641c-.505-.505-1.358-.19-1.421.505l-.79 6.536a.864.864 0 00.948.947l6.504-.79c.694-.094 1.01-.947.505-1.42l-1.642-1.642 6.82-6.82a.916.916 0 000-1.326L23.914.284z"/></symbol><symbol viewBox="0 0 24 19" id="eye_closed" xmlns="http://www.w3.org/2000/svg"><path d="M10.024 13.103l.37-.93a3.5 3.5 0 004.645-4.26l.957-.286a4.5 4.5 0 01-5.972 5.476zM1.677 8.86c-.133.144-.258.283-.374.415a23.286 23.286 0 002.84 2.721c.544.44 1.103.846 1.673 1.213l-.542.84C2.092 12 0 9.276 0 9.276s5.373-7 12-7c1.425 0 2.791.323 4.06.831l-.767.778c-1.108-.4-2.208-.61-3.293-.61-2.633 0-5.305 1.222-7.858 3.28-.91.732-1.737 1.52-2.465 2.306zm20.646.83c.133-.145.258-.283.374-.415a23.288 23.288 0 00-2.84-2.721c-.38-.308-.769-.6-1.163-.873l.57-.822C22.141 6.855 24 9.276 24 9.276s-5.373 7-12 7c-1.288 0-2.53-.265-3.693-.691l.8-.783a9.452 9.452 0 002.893.474c2.633 0 5.305-1.221 7.858-3.279.91-.733 1.737-1.52 2.465-2.307zm-8.339-4.455l-.441.897a3.5 3.5 0 00-4.738 4.573l-.913.41a4.5 4.5 0 016.092-5.88zM20.718 0l.707.707L3.229 18.903l-.707-.707L20.718 0z"/></symbol><symbol viewBox="0 0 24 24" id="i" xmlns="http://www.w3.org/2000/svg"><path d="M12 0a12 12 0 100 24 12 12 0 000-24zm.149 18.127a.356.356 0 00.336 0 3.21 3.21 0 00.561-.52c.24-.286.452-.596.69-.917l.333.201c-.48.802-.975 1.546-1.709 2.103-.386.307-.85.5-1.34.559-1.144.13-1.876-.65-1.602-1.774.24-.986.544-1.958.823-2.937.278-.98.559-1.997.842-2.99.023-.099.04-.198.05-.298a.588.588 0 00-.53-.735 5.077 5.077 0 00-.523-.019.846.846 0 01.026-.17l.034-.24 4.138-.663-.288 1.003-.065.24-1.807 6.31a1.996 1.996 0 00-.118.514.447.447 0 00.149.333zm.993-10.687a1.493 1.493 0 01-1.483-1.507 1.49 1.49 0 012.981 0 1.51 1.51 0 01-1.498 1.507z"/></symbol><symbol viewBox="0 0 30 30" id="minus" xmlns="http://www.w3.org/2000/svg"><path d="M14.587.006A15.012 15.012 0 004.24 4.54 14.96 14.96 0 000 14.998a14.95 14.95 0 004.383 10.606A15.003 15.003 0 0015 30a15.022 15.022 0 0010.617-4.396A14.973 14.973 0 0030 14.998a14.952 14.952 0 00-4.532-10.749A15.004 15.004 0 0014.587.006zM8.384 13.338h13.034a1.774 1.774 0 011.769 1.769 1.767 1.767 0 01-1.769 1.769H8.384a1.774 1.774 0 01-1.768-1.77 1.767 1.767 0 011.768-1.768z"/></symbol><symbol viewBox="0 0 30 30" id="plus" xmlns="http://www.w3.org/2000/svg"><path d="M14.587.006A15.013 15.013 0 004.24 4.54 14.956 14.956 0 000 14.996a14.946 14.946 0 004.382 10.607A15.003 15.003 0 0015 30a15.026 15.026 0 0010.619-4.397A14.967 14.967 0 0030 14.995 14.948 14.948 0 0025.468 4.25 15.004 15.004 0 0014.587.006zm.25 6.84a1.775 1.775 0 011.691 1.067c.094.217.143.45.145.687v4.736h4.745a1.774 1.774 0 011.767 1.768 1.767 1.767 0 01-1.767 1.769h-4.745v4.736a1.767 1.767 0 01-1.772 1.743 1.774 1.774 0 01-1.771-1.743v-4.736H8.384a1.774 1.774 0 01-1.767-1.769 1.767 1.767 0 011.767-1.768h4.746V8.6a1.767 1.767 0 011.706-1.754z"/></symbol><symbol viewBox="0 0 49 9" id="purple" xmlns="http://www.w3.org/2000/svg"><path fill-rule="evenodd" clip-rule="evenodd" d="M3.577.264c.726 0 1.356.122 1.89.368.535.246.947.594 1.236 1.046.289.451.433.986.433 1.604 0 .61-.144 1.142-.433 1.598-.289.455-.7.804-1.235 1.045-.535.242-1.165.363-1.891.363H1.926V8.58H.029V.264h3.548zm.003 4.462c.58 0 1.023-.131 1.325-.394.303-.263.454-.637.454-1.12 0-.493-.151-.871-.454-1.134-.302-.263-.744-.395-1.325-.395H2.003v3.043H3.58zm5.9 3.065c.641.662 1.538.993 2.69.993s2.049-.331 2.69-.993c.641-.663.962-1.608.962-2.836V.264H13.98v4.619c0 .774-.154 1.342-.461 1.705-.307.363-.753.544-1.337.544-1.198 0-1.797-.75-1.797-2.25V.265H8.518v4.69c0 1.23.32 2.174.962 2.837zm13.232.79l-1.548-2.317h-1.708v2.317H17.6V.264h3.473c.711 0 1.328.122 1.852.368a2.78 2.78 0 011.209 1.046c.283.451.424.986.424 1.604 0 .618-.143 1.15-.43 1.598a2.75 2.75 0 01-1.22 1.028l1.8 2.673h-1.995zm-.237-6.505c.303.262.454.638.454 1.129 0 .482-.151.856-.454 1.122-.302.266-.744.4-1.325.4h-1.577V1.682h1.577c.58 0 1.023.131 1.325.393zM29.833.264c.726 0 1.356.122 1.89.368.535.246.947.594 1.236 1.046.289.451.433.986.433 1.604 0 .61-.144 1.142-.433 1.598-.289.455-.7.804-1.235 1.045-.535.242-1.165.363-1.891.363h-1.65V8.58h-1.898V.264h3.548zm1.13 4.068c-.302.263-.744.394-1.325.394h-1.576V1.683h1.576c.581 0 1.023.132 1.326.395.302.263.454.64.454 1.133 0 .484-.152.858-.454 1.12zm3.81-4.068h1.871v6.749h4.052V8.58h-5.922V.264zM48.199 8.58V7.036h-4.44V5.111h3.787V3.614h-3.788V1.808h4.29V.264H41.88V8.58h6.317z"/></symbol><symbol viewBox="0 0 11 11" id="remove" xmlns="http://www.w3.org/2000/svg"><path fill-rule="evenodd" clip-rule="evenodd" d="M2.389 10.606L5.5 7.61l3.111 2.997a1.443 1.443 0 001.981 0 1.32 1.32 0 000-1.907l-3.32-3.2 3.32-3.197a1.32 1.32 0 000-1.908 1.443 1.443 0 00-1.98 0L5.5 3.39 2.389.394a1.443 1.443 0 00-1.981 0 1.32 1.32 0 000 1.908L3.728 5.5.408 8.699a1.32 1.32 0 000 1.907 1.443 1.443 0 001.98 0z"/></symbol><symbol viewBox="0 0 27 30" id="up" xmlns="http://www.w3.org/2000/svg"><path d="M25.108 11.056h-4.041a.916.916 0 00-.916.916v17.112c0 .506.41.916.916.916h4.04c.506 0 .916-.41.916-.916V11.972a.916.916 0 00-.915-.916zm-8.367 6.346H12.7a.916.916 0 00-.916.916v10.735c0 .505.41.915.916.915h4.041c.505 0 .916-.41.916-.915V18.318a.916.916 0 00-.916-.916zM8.406 23.78H4.364a.916.916 0 00-.915.916v4.388c0 .506.41.916.915.916h4.042c.505 0 .915-.41.915-.916v-4.388a.916.916 0 00-.915-.916zm4.988-10.64a.916.916 0 001.326 0l6.789-6.788 1.641 1.642c.506.505 1.358.19 1.421-.506l.79-6.535a.864.864 0 00-.948-.947L17.91.795c-.694.095-1.01.947-.505 1.42l1.642 1.643-6.82 6.82a.916.916 0 000 1.325l1.168 1.137zm-7.64-1.326H3.985c-.757 0-1.42-.537-1.515-1.263-.063-.41.063-.853.347-1.168a1.512 1.512 0 011.105-.505h1.926a1.46 1.46 0 011.453 1.23c.031.253.22.411.473.411h1.61a.507.507 0 00.348-.158.475.475 0 00.126-.347 4.014 4.014 0 00-3.662-3.63v-1.39a.486.486 0 00-.474-.473H4.143a.486.486 0 00-.473.473v1.39c-1.01.062-1.958.536-2.652 1.294-.727.79-1.074 1.831-1.01 2.904.126 2.116 1.925 3.758 4.104 3.758H5.88c.758 0 1.42.536 1.515 1.263a1.44 1.44 0 01-.347 1.168 1.513 1.513 0 01-1.105.505H4.017a1.46 1.46 0 01-1.452-1.231c-.032-.221-.221-.38-.474-.38H.481a.507.507 0 00-.347.159c-.095.094-.127.22-.127.379.19 1.957 1.737 3.473 3.663 3.599v1.389c0 .253.22.474.473.474h1.579a.486.486 0 00.474-.474v-1.39c1.042-.062 1.957-.536 2.652-1.294.726-.789 1.073-1.83 1.01-2.904-.126-2.147-1.926-3.79-4.104-3.79z"/></symbol><symbol viewBox="0 0 55 36" id="user" xmlns="http://www.w3.org/2000/svg"><path d="M51.555 0H3.245A3.247 3.247 0 000 3.241v29.063a3.245 3.245 0 003.245 3.237h48.31a3.243 3.243 0 003.241-3.237V3.241A3.245 3.245 0 0051.556 0zm1.177 32.304c0 .647-.528 1.173-1.177 1.173H3.245c-.651 0-1.18-.526-1.18-1.173V3.241c0-.649.53-1.177 1.18-1.177h48.31c.649 0 1.177.528 1.177 1.177v29.063z"/><path d="M19.258 19.99a8.073 8.073 0 00-3.87-2.086 5.248 5.248 0 003.361-4.889 5.25 5.25 0 00-5.245-5.244c-1.402 0-2.72.546-3.711 1.536a5.209 5.209 0 00-1.537 3.708 5.248 5.248 0 003.362 4.889 8.071 8.071 0 00-3.87 2.087c-1.702 1.655-2.602 3.99-2.602 6.752 0 .57.463 1.032 1.033 1.032h14.65a1.032 1.032 0 001.03-1.104c-.016-2.731-.915-5.04-2.601-6.68zm-8.937-6.975c0-.849.33-1.647.931-2.248a3.184 3.184 0 015.432 2.248 3.182 3.182 0 01-6.363 0zM7.264 25.711c.433-4.082 3.435-5.953 6.239-5.953s5.806 1.871 6.238 5.953H7.264zm41.358-14.953H26.507a1.032 1.032 0 100 2.064h22.115a1.032 1.032 0 100-2.064zM42.2 17.445H26.507a1.032 1.032 0 100 2.065H42.2a1.032 1.032 0 100-2.065zm-6.166 5.279h-9.527a1.032 1.032 0 100 2.064h9.527a1.032 1.032 0 100-2.064z"/></symbol></svg>